/vscmnt/brussel_pixiu_data/_data_brussel/112/vsc11236/PredSimResults/SUBJ10mtu3D/worker6.mot
version=1
nRows=6
nColumns=50
inDegrees=yes
endheader
                time	         pelvis_tilt	         pelvis_list	     pelvis_rotation	           pelvis_tx	           pelvis_ty	           pelvis_tz	       hip_flexion_r	     hip_adduction_r	      hip_rotation_r	        knee_angle_r	       ankle_angle_r	         mtp_angle_r	       hip_flexion_l	     hip_adduction_l	      hip_rotation_l	        knee_angle_l	       ankle_angle_l	         mtp_angle_l	    lumbar_extension	      lumbar_bending	     lumbar_rotation	 ercspn_r/activation	 intobl_r/activation	 extobl_r/activation	    abd_r/activation	    add_r/activation	hamstrings_r/activation	bifemsh_r/activation	glut_max_r/activation	iliopsoas_r/activation	rect_fem_r/activation	  vasti_r/activation	gastroc_r/activation	 soleus_r/activation	tib_ant_r/activation	 ercspn_l/activation	 intobl_l/activation	 extobl_l/activation	    abd_l/activation	    add_l/activation	hamstrings_l/activation	bifemsh_l/activation	glut_max_l/activation	iliopsoas_l/activation	rect_fem_l/activation	  vasti_l/activation	gastroc_l/activation	 soleus_l/activation	tib_ant_l/activation	
          1.11414285	         -3.90045689	         -0.75061118	          7.49991365	          1.34811285	          0.82267120	         -0.01254486	         30.95236042	         -1.93797430	         -5.93592355	         -6.79121398	          3.27399865	          0.26627598	        -17.02391019	         -0.73823562	         -0.01109104	         -4.68618140	          8.05416348	         26.04482379	         -7.31143607	         -1.03353347	         -5.92681583	          0.12600765	          0.18880102	          0.01000001	          0.01083419	          0.11262483	          0.12531010	          0.25477985	          0.02506771	          0.10430449	          0.01000004	          0.01000001	          0.01069955	          0.01000000	          0.29248627	          0.06531572	          0.00999999	          0.01000000	          0.05384899	          0.01000001	          0.01242813	          0.23705733	          0.01157173	          0.36465057	          0.01000005	          0.01000000	          0.30927427	          0.24907267	          0.02507083	
          1.12528428	         -3.93797531	         -0.70770765	          7.61354079	          1.36367338	          0.82130226	         -0.01241705	         30.87301515	         -1.83039846	         -5.71280842	         -8.35705698	          3.02453985	          0.26441727	        -17.15170770	         -0.84128327	         -0.29395017	         -6.30917729	          7.36460169	         27.73295582	         -7.13564741	         -0.61490517	         -6.22924618	          0.10627372	          0.15923298	          0.01000002	          0.00999999	          0.16437852	          0.10627611	          0.21487915	          0.06387173	          0.08796941	          0.01000002	          0.00999999	          0.01808375	          0.01221867	          0.31161137	          0.10875932	          0.01000000	          0.01000000	          0.04541572	          0.01000013	          0.01212867	          0.19993189	          0.01163337	          0.30754282	          0.01000004	          0.01000000	          0.27660805	          0.23898103	          0.02114450	
          1.13642570	         -3.96516674	         -0.67700717	          7.68597937	          1.37955271	          0.82012780	         -0.01221312	         30.62664998	         -1.73482646	         -5.42845694	         -9.82442499	          2.65097256	          0.25456229	        -17.17382055	         -0.96291135	         -0.60854560	         -8.15774665	          6.54248833	         29.37313450	         -6.93685007	         -0.17364069	         -6.50902150	          0.09613613	          0.13429558	          0.01000001	          0.03225808	          0.13863529	          0.09283962	          0.18122704	          0.09942683	          0.07419256	          0.01000001	          0.01000000	          0.01525166	          0.01030511	          0.38723929	          0.12066214	          0.00999999	          0.01000001	          0.03830319	          0.01000007	          0.01381332	          0.16862065	          0.01000001	          0.25937868	          0.01000005	          0.01000000	          0.23328859	          0.22333253	          0.01783307	
          1.14756713	         -3.98373053	         -0.64662839	          7.71130235	          1.39554551	          0.81927276	         -0.01188665	         30.29796458	         -1.63667042	         -5.22369034	        -11.13025515	          2.15877756	          0.24188717	        -17.01948237	         -1.09149130	         -0.95689270	        -10.32488685	          5.58600042	         30.88796142	         -6.73954460	          0.26701980	         -6.75942333	          0.11478632	          0.11326361	          0.01000001	          0.08643253	          0.17651719	          0.07830006	          0.15284516	          0.11656609	          0.06257330	          0.01000001	          0.01000000	          0.01286311	          0.01000000	          0.43301110	          0.14889735	          0.00999999	          0.01000000	          0.03230454	          0.01000002	          0.01612049	          0.14221305	          0.01000001	          0.21875751	          0.01000006	          0.01000000	          0.19675336	          0.20602554	          0.01504024	
          1.15870856	         -3.99297383	         -0.61428786	          7.69411033	          1.41150003	          0.81884224	         -0.01144968	         29.97594918	         -1.53635403	         -5.09594470	        -12.46921786	          1.75337577	          0.22681461	        -16.63624209	         -1.22717380	         -1.34133431	        -12.87591987	          4.50081822	         32.15101226	         -6.55679274	          0.70330499	         -6.97819505	          0.11858791	          0.09552544	          0.01000001	          0.12294696	          0.22617406	          0.06766417	          0.12890816	          0.12545308	          0.05277372	          0.01000001	          0.01000199	          0.01084863	          0.01000002	          0.45175527	          0.17993756	          0.01000000	          0.01000000	          0.02724534	          0.01832595	          0.01864606	          0.11994113	          0.01000002	          0.18449799	          0.01000003	          0.01000001	          0.16593991	          0.18040369	          0.01268479	
          1.16984999	         -3.99302149	         -0.58286228	          7.64036846	          1.42731661	          0.81890375	         -0.01091396	         29.69797727	         -1.43297155	         -5.02195910	        -13.91177599	          1.53103843	          0.21209577	        -15.98369441	         -1.37740057	         -1.76891549	        -15.85784787	          3.30976576	         32.98148391	         -6.39304483	          1.13526822	         -7.16711868	          0.11842666	          0.08056525	          0.01000001	          0.14528587	          0.25684006	          0.06388275	          0.10871991	          0.12656485	          0.04450885	          0.01000001	          0.04505261	          0.01000001	          0.01000000	          0.45749387	          0.20140605	          0.01000000	          0.01000000	          0.02297846	          0.08796075	          0.02118933	          0.10115721	          0.01000000	          0.15560385	          0.01000001	          0.01000000	          0.13995213	          0.15215075	          0.01069823	
